<?xml version="1.0" encoding="UTF-8"?>
<!DOCTYPE svg PUBLIC "-//W3C//DTD SVG 1.1//EN" "http://www.w3.org/Graphics/SVG/1.1/DTD/svg11.dtd">
<svg xmlns="http://www.w3.org/2000/svg" version="1.1" width="500px" height="500px" style="shape-rendering:geometricPrecision; text-rendering:geometricPrecision; image-rendering:optimizeQuality; fill-rule:evenodd; clip-rule:evenodd" xmlns:xlink="http://www.w3.org/1999/xlink">
<g><path style="opacity:0.77" fill="#070707" d="M 258.5,248.5 C 257.833,248.5 257.167,248.5 256.5,248.5C 257.763,243.968 259.597,239.635 262,235.5C 269.284,225.215 276.95,215.215 285,205.5C 294.008,193.482 300.341,180.149 304,165.5C 309.184,134.707 298.351,111.541 271.5,96C 247.371,88.2903 225.037,91.957 204.5,107C 183.084,126.979 178.25,150.479 190,177.5C 197.415,190.665 205.081,203.665 213,216.5C 218.107,227.048 222.941,237.714 227.5,248.5C 229.333,248.833 231.167,249.167 233,249.5C 235.302,249.4 237.302,248.733 239,247.5C 240.304,228.19 240.47,208.857 239.5,189.5C 241.998,190.627 244.664,191.294 247.5,191.5C 249.045,191.489 250.378,191.156 251.5,190.5C 252.167,190.5 252.833,190.5 253.5,190.5C 254.492,190.328 255.158,190.662 255.5,191.5C 251.272,191.987 247.105,192.653 243,193.5C 242.738,212.181 242.238,230.848 241.5,249.5C 235.37,250.766 229.37,250.766 223.5,249.5C 224.097,249.265 224.43,248.765 224.5,248C 216.12,226.4 205.287,206.233 192,187.5C 174.626,156.546 178.459,128.713 203.5,104C 221.681,91.4945 241.681,86.8278 263.5,90C 298.212,104.918 312.379,131.085 306,168.5C 301.879,181.742 295.879,194.075 288,205.5C 280.333,215.5 272.667,225.5 265,235.5C 262.293,239.581 260.126,243.914 258.5,248.5 Z"/></g>
<g><path style="opacity:1" fill="#070e05" d="M 255.5,191.5 C 255.158,190.662 254.492,190.328 253.5,190.5C 255.762,189.177 258.096,187.843 260.5,186.5C 254.604,184.94 249.271,186.106 244.5,190C 246.81,190.497 249.143,190.663 251.5,190.5C 250.378,191.156 249.045,191.489 247.5,191.5C 244.664,191.294 241.998,190.627 239.5,189.5C 234.405,187.705 229.071,185.872 223.5,184C 219.066,179.905 219.732,177.072 225.5,175.5C 230.639,176.653 235.139,178.986 239,182.5C 240.195,178.249 240.695,173.915 240.5,169.5C 232.62,170.819 226.12,168.486 221,162.5C 219.813,158.518 221.313,156.851 225.5,157.5C 231.734,157.535 236.901,159.868 241,164.5C 242.197,160.524 242.864,156.524 243,152.5C 238.689,151.178 235.023,148.845 232,145.5C 230.67,140.502 232.504,138.336 237.5,139C 240.672,141.006 243.338,143.506 245.5,146.5C 247.562,140.513 249.729,134.513 252,128.5C 254.216,125.277 257.216,123.277 261,122.5C 264.51,123.661 265.844,125.994 265,129.5C 263.939,132.562 262.106,135.062 259.5,137C 256.073,138.796 252.906,140.963 250,143.5C 247.861,147.032 247.027,150.698 247.5,154.5C 251.898,151.921 256.564,149.921 261.5,148.5C 267.238,150.554 267.905,153.72 263.5,158C 257.495,162.167 250.829,164 243.5,163.5C 243.311,167.348 243.311,171.015 243.5,174.5C 248.733,170.191 254.733,168.358 261.5,169C 263.051,172.572 262.051,175.239 258.5,177C 253.409,179.252 248.075,180.418 242.5,180.5C 242.187,183.247 242.52,185.914 243.5,188.5C 248.802,184.233 254.802,182.733 261.5,184C 262.554,185.388 262.72,186.888 262,188.5C 260.007,189.914 257.84,190.914 255.5,191.5 Z"/></g>
<g><path style="opacity:1" fill="#697e36" d="M 253.5,190.5 C 252.833,190.5 252.167,190.5 251.5,190.5C 249.143,190.663 246.81,190.497 244.5,190C 249.271,186.106 254.604,184.94 260.5,186.5C 258.096,187.843 255.762,189.177 253.5,190.5 Z"/></g>
<g><path style="opacity:1" fill="#1c5432" d="M 223.5,177.5 C 229.566,177.866 234.566,180.366 238.5,185C 233.674,185.618 229.008,184.951 224.5,183C 222.701,181.3 222.368,179.467 223.5,177.5 Z"/></g>
<g><path style="opacity:1" fill="#1c5432" d="M 255.5,170.5 C 257.167,170.5 258.833,170.5 260.5,170.5C 260.649,171.552 260.483,172.552 260,173.5C 254.822,177.404 248.989,178.904 242.5,178C 246.205,174.278 250.538,171.778 255.5,170.5 Z"/></g>
<g><path style="opacity:1" fill="#748b35" d="M 222.5,159.5 C 229.436,158.919 235.103,161.252 239.5,166.5C 231.581,169.182 225.915,166.848 222.5,159.5 Z"/></g>
<g><path style="opacity:1" fill="#1b5933" d="M 257.5,151.5 C 259.833,151.5 262.167,151.5 264.5,151.5C 264.607,153.903 263.607,155.736 261.5,157C 256.15,160.17 250.484,161.336 244.5,160.5C 248.026,156.245 252.359,153.245 257.5,151.5 Z"/></g>
<g><path style="opacity:1" fill="#73873a" d="M 233.5,140.5 C 238.279,141.271 241.612,143.938 243.5,148.5C 237.601,149.202 234.268,146.535 233.5,140.5 Z"/></g>
<g><path style="opacity:1" fill="#758b34" d="M 257.5,125.5 C 259.199,125.34 260.866,125.506 262.5,126C 263.447,129.791 262.114,132.791 258.5,135C 256.301,136.697 253.968,138.197 251.5,139.5C 250.488,137.163 250.655,134.83 252,132.5C 253.666,130.004 255.5,127.671 257.5,125.5 Z"/></g>
<g><path style="opacity:1" fill="#ededed" d="M 157.5,223.5 C 161.414,228.798 162.414,235.132 160.5,242.5C 159.504,242.586 158.671,242.252 158,241.5C 157.71,239.048 157.044,236.715 156,234.5C 155.708,236.326 155.875,238.159 156.5,240C 156.561,241.711 155.894,243.044 154.5,244C 155.271,245.998 154.605,247.665 152.5,249C 154.5,249 156.5,249 158.5,249C 159.399,250.652 160.399,252.152 161.5,253.5C 161.842,258.026 160.508,261.859 157.5,265C 159.438,265.021 161.438,264.854 163.5,264.5C 164.852,265.524 166.185,266.524 167.5,267.5C 167.5,270.5 167.5,273.5 167.5,276.5C 166.224,277.386 166.224,278.386 167.5,279.5C 168.086,279.291 168.586,278.957 169,278.5C 171.358,280.024 173.191,282.024 174.5,284.5C 175.107,284.376 175.44,284.043 175.5,283.5C 175.833,283.5 176.167,283.5 176.5,283.5C 176.369,284.376 176.702,285.043 177.5,285.5C 181.823,287.327 185.823,289.66 189.5,292.5C 189.338,294.527 189.505,296.527 190,298.5C 190.995,297.934 191.828,297.267 192.5,296.5C 192.435,296.062 192.601,295.728 193,295.5C 193.662,296.984 194.496,298.317 195.5,299.5C 196.895,300.648 196.728,301.648 195,302.5C 193.145,300.124 190.978,299.457 188.5,300.5C 186.635,298.466 184.468,297.799 182,298.5C 181.517,297.552 181.351,296.552 181.5,295.5C 177.063,293.285 172.396,291.619 167.5,290.5C 166.167,289.5 164.833,288.5 163.5,287.5C 163.573,285.973 162.906,284.973 161.5,284.5C 161.25,282.326 160.25,280.659 158.5,279.5C 158.443,278.391 158.11,277.391 157.5,276.5C 157.525,272.86 155.858,270.527 152.5,269.5C 151.677,267.013 150.677,264.679 149.5,262.5C 149.258,258.521 148.258,254.854 146.5,251.5C 145.951,244.607 144.951,237.774 143.5,231C 143.387,229.301 144.053,228.134 145.5,227.5C 148.237,229.672 151.071,231.006 154,231.5C 153.888,229.822 153.388,228.155 152.5,226.5C 152.685,225.416 153.018,224.416 153.5,223.5C 154.833,222.167 156.167,222.167 157.5,223.5 Z"/></g>
<g><path style="opacity:1" fill="#9d9c9c" d="M 153.5,223.5 C 153.018,224.416 152.685,225.416 152.5,226.5C 153.388,228.155 153.888,229.822 154,231.5C 151.071,231.006 148.237,229.672 145.5,227.5C 145.5,227.167 145.5,226.833 145.5,226.5C 148.076,225.512 150.743,224.512 153.5,223.5 Z"/></g>
<g><path style="opacity:1" fill="#989797" d="M 157.5,223.5 C 159.888,224.219 161.388,225.885 162,228.5C 163.952,224.605 166.786,223.771 170.5,226C 172.451,227.734 173.451,229.901 173.5,232.5C 172.31,230.645 170.977,228.812 169.5,227C 167.833,226.333 166.167,226.333 164.5,227C 165.376,230.416 165.376,233.916 164.5,237.5C 164.66,235.801 164.494,234.134 164,232.5C 163.661,235.88 163.161,239.213 162.5,242.5C 161.833,242.833 161.167,243.167 160.5,243.5C 160.5,243.167 160.5,242.833 160.5,242.5C 162.414,235.132 161.414,228.798 157.5,223.5 Z"/></g>
<g><path style="opacity:0.541" fill="#636263" d="M 145.5,226.5 C 145.5,226.833 145.5,227.167 145.5,227.5C 144.053,228.134 143.387,229.301 143.5,231C 144.951,237.774 145.951,244.607 146.5,251.5C 144.808,244.877 143.475,238.044 142.5,231C 142.05,228.374 143.05,226.874 145.5,226.5 Z"/></g>
<g><path style="opacity:1" fill="#939292" d="M 341.5,228.5 C 342.097,228.735 342.43,229.235 342.5,230C 341.363,237.005 340.029,243.839 338.5,250.5C 338.64,248.876 337.973,247.71 336.5,247C 338.98,244.579 339.647,241.746 338.5,238.5C 340.004,235.313 341.004,231.979 341.5,228.5 Z"/></g>
<g><path style="opacity:1" fill="#626262" d="M 160.5,242.5 C 160.5,242.833 160.5,243.167 160.5,243.5C 159.414,243.62 158.747,244.287 158.5,245.5C 160.514,247.707 161.514,250.373 161.5,253.5C 160.399,252.152 159.399,250.652 158.5,249C 156.5,249 154.5,249 152.5,249C 154.605,247.665 155.271,245.998 154.5,244C 155.894,243.044 156.561,241.711 156.5,240C 155.875,238.159 155.708,236.326 156,234.5C 157.044,236.715 157.71,239.048 158,241.5C 158.671,242.252 159.504,242.586 160.5,242.5 Z"/></g>
<g><path style="opacity:0.91" fill="#474747" d="M 186.5,235.5 C 188.236,238.841 189.236,242.508 189.5,246.5C 188.883,246.389 188.383,246.056 188,245.5C 187.545,242.146 187.045,238.813 186.5,235.5 Z"/></g>
<g><path style="opacity:1" fill="#6d6d6d" d="M 313.5,227.5 C 311.737,231.978 310.737,236.645 310.5,241.5C 312.854,241.838 315.187,242.338 317.5,243C 314.723,243.051 312.057,243.218 309.5,243.5C 307.733,246.975 306.067,250.475 304.5,254C 306.107,253.981 307.774,253.815 309.5,253.5C 307.132,254.783 304.965,256.45 303,258.5C 302.487,257.473 301.987,256.473 301.5,255.5C 305.046,248.281 306.379,240.615 305.5,232.5C 306.478,232.811 307.145,233.478 307.5,234.5C 306.415,237.773 306.248,241.106 307,244.5C 307.915,243.672 308.581,242.672 309,241.5C 309.388,237.781 310.055,234.114 311,230.5C 311.377,229.058 312.21,228.058 313.5,227.5 Z"/></g>
<g><path style="opacity:1" fill="#e6e6e6" d="M 319.5,245.5 C 318.326,246.514 317.66,247.847 317.5,249.5C 316.733,250.172 316.066,251.005 315.5,252C 313.292,252.191 311.292,252.691 309.5,253.5C 307.774,253.815 306.107,253.981 304.5,254C 306.067,250.475 307.733,246.975 309.5,243.5C 312.057,243.218 314.723,243.051 317.5,243C 315.187,242.338 312.854,241.838 310.5,241.5C 310.737,236.645 311.737,231.978 313.5,227.5C 315.764,226.781 318.097,226.448 320.5,226.5C 319.756,232.905 319.423,239.238 319.5,245.5 Z"/></g>
<g><path style="opacity:1" fill="#e8e8e8" d="M 173.5,232.5 C 173.5,235.5 173.5,238.5 173.5,241.5C 171.436,241.687 169.436,242.187 167.5,243C 170.131,243.107 172.631,243.273 175,243.5C 176,245.5 177,247.5 178,249.5C 178.78,251.387 178.613,253.054 177.5,254.5C 174.877,252.735 171.877,252.068 168.5,252.5C 167.908,249.309 166.741,246.309 165,243.5C 164.505,241.527 164.338,239.527 164.5,237.5C 165.376,233.916 165.376,230.416 164.5,227C 166.167,226.333 167.833,226.333 169.5,227C 170.977,228.812 172.31,230.645 173.5,232.5 Z"/></g>
<g><path style="opacity:1" fill="#6c6c6c" d="M 297.5,236.5 C 294.794,242.247 296.461,245.747 302.5,247C 300.144,247.155 297.811,247.155 295.5,247C 294.601,248.652 293.601,250.152 292.5,251.5C 294.483,246.56 296.15,241.56 297.5,236.5 Z"/></g>
<g><path style="opacity:1" fill="#404040" d="M 189.5,246.5 C 191.104,247.287 191.771,248.62 191.5,250.5C 190.326,249.486 189.66,248.153 189.5,246.5 Z"/></g>
<g><path style="opacity:1" fill="#dbdbdb" d="M 305.5,232.5 C 306.379,240.615 305.046,248.281 301.5,255.5C 299.629,255.141 298.129,254.141 297,252.5C 297.595,254.35 298.095,256.35 298.5,258.5C 296.156,259.852 294.489,261.852 293.5,264.5C 290.655,264.234 288.322,263.234 286.5,261.5C 286.738,259.596 287.738,258.262 289.5,257.5C 290.88,258.706 292.047,258.373 293,256.5C 294.333,257.167 295.667,257.833 297,258.5C 295.405,256.37 293.905,254.036 292.5,251.5C 293.601,250.152 294.601,248.652 295.5,247C 297.811,247.155 300.144,247.155 302.5,247C 296.461,245.747 294.794,242.247 297.5,236.5C 298.72,231.902 301.387,230.568 305.5,232.5 Z"/></g>
<g><path style="opacity:1" fill="#dadada" d="M 186.5,235.5 C 187.045,238.813 187.545,242.146 188,245.5C 188.383,246.056 188.883,246.389 189.5,246.5C 189.66,248.153 190.326,249.486 191.5,250.5C 192.275,252.612 192.275,254.612 191.5,256.5C 189.52,255.632 187.853,256.299 186.5,258.5C 182.875,255.705 180.708,252.039 180,247.5C 179.549,242.761 179.215,238.095 179,233.5C 180.388,232.446 181.888,232.28 183.5,233C 184.373,234.045 185.373,234.878 186.5,235.5 Z"/></g>
<g><path style="opacity:1" fill="#c0c0c0" d="M 317.5,258.5 C 312.939,255.215 309.605,256.215 307.5,261.5C 309.274,262.187 310.941,263.02 312.5,264C 311.829,264.986 311.829,266.153 312.5,267.5C 310.79,265.8 308.79,264.467 306.5,263.5C 305.5,264.833 304.5,264.833 303.5,263.5C 302.06,264.952 300.394,265.952 298.5,266.5C 299.602,264.908 298.935,264.075 296.5,264C 297.64,262.027 298.973,260.193 300.5,258.5C 300.03,257.537 299.363,257.537 298.5,258.5C 298.095,256.35 297.595,254.35 297,252.5C 298.129,254.141 299.629,255.141 301.5,255.5C 301.987,256.473 302.487,257.473 303,258.5C 304.965,256.45 307.132,254.783 309.5,253.5C 313.639,252.704 316.805,254.037 319,257.5C 319.374,256.584 319.874,255.75 320.5,255C 317.965,254.072 316.965,252.238 317.5,249.5C 317.66,247.847 318.326,246.514 319.5,245.5C 320.712,244.77 321.712,243.77 322.5,242.5C 326.411,243.414 327.244,245.414 325,248.5C 323.951,247.483 322.784,247.316 321.5,248C 322.574,248.739 323.241,249.739 323.5,251C 322.833,253 322.167,255 321.5,257C 322.33,258.465 322.496,259.965 322,261.5C 320.908,259.883 319.408,258.883 317.5,258.5 Z"/></g>
<g><path style="opacity:0.308" fill="#797979" d="M 186.5,235.5 C 185.373,234.878 184.373,234.045 183.5,233C 181.888,232.28 180.388,232.446 179,233.5C 179.215,238.095 179.549,242.761 180,247.5C 180.708,252.039 182.875,255.705 186.5,258.5C 187.853,256.299 189.52,255.632 191.5,256.5C 190.524,257.815 189.524,259.148 188.5,260.5C 189.945,262.063 191.611,263.396 193.5,264.5C 192.167,265.167 190.833,265.833 189.5,266.5C 190.972,266.406 192.138,267.406 193,269.5C 193.669,266.972 194.502,266.972 195.5,269.5C 195.291,270.086 194.957,270.586 194.5,271C 196.025,272.009 197.692,272.509 199.5,272.5C 201.292,273.309 203.292,273.809 205.5,274C 203.942,274.21 202.609,274.71 201.5,275.5C 197.429,273.719 193.262,272.052 189,270.5C 187.091,271.156 185.258,271.656 183.5,272C 186.321,270.379 186.987,268.212 185.5,265.5C 186.984,264.527 187.484,263.193 187,261.5C 185.667,260.167 184.333,258.833 183,257.5C 183.077,258.738 182.911,259.738 182.5,260.5C 181.818,259.757 181.151,259.091 180.5,258.5C 179.5,257.167 178.5,255.833 177.5,254.5C 178.613,253.054 178.78,251.387 178,249.5C 177,247.5 176,245.5 175,243.5C 172.631,243.273 170.131,243.107 167.5,243C 169.436,242.187 171.436,241.687 173.5,241.5C 173.5,238.5 173.5,235.5 173.5,232.5C 176.852,248.053 178.352,248.053 178,232.5C 180.064,231.409 182.231,231.242 184.5,232C 185.823,232.816 186.489,233.983 186.5,235.5 Z"/></g>
<g><path style="opacity:1" fill="#6c6c6c" d="M 317.5,249.5 C 316.965,252.238 317.965,254.072 320.5,255C 319.874,255.75 319.374,256.584 319,257.5C 316.805,254.037 313.639,252.704 309.5,253.5C 311.292,252.691 313.292,252.191 315.5,252C 316.066,251.005 316.733,250.172 317.5,249.5 Z"/></g>
<g><path style="opacity:0.249" fill="#505050" d="M 191.5,250.5 C 192.87,252.25 193.87,254.25 194.5,256.5C 193.5,256.5 192.5,256.5 191.5,256.5C 192.275,254.612 192.275,252.612 191.5,250.5 Z"/></g>
<g><path style="opacity:1" fill="#686868" d="M 341.5,228.5 C 337.145,226.585 333.645,227.585 331,231.5C 330.215,229.714 329.049,228.214 327.5,227C 329.163,226.735 330.663,227.235 332,228.5C 332.684,227.216 332.517,226.049 331.5,225C 328.975,224.104 326.808,224.604 325,226.5C 324.08,229.101 323.413,231.768 323,234.5C 322.237,231.937 321.737,231.937 321.5,234.5C 324.55,245.361 327.05,245.028 329,233.5C 328.722,237.139 328.722,240.806 329,244.5C 329.199,246.402 330.033,247.902 331.5,249C 330.216,249.684 329.049,249.517 328,248.5C 324.137,251.599 322.97,256.099 324.5,262C 328.373,265.919 327.706,266.419 322.5,263.5C 318.328,265.603 317.328,268.437 319.5,272C 318.044,274.266 317.21,276.766 317,279.5C 316.163,277.993 314.996,277.493 313.5,278C 312.257,280.116 311.091,282.282 310,284.5C 309.586,284.043 309.086,283.709 308.5,283.5C 304.799,285.557 301.133,287.557 297.5,289.5C 299.656,287.159 302.156,285.159 305,283.5C 305.195,281.793 305.195,280.126 305,278.5C 306.974,281.118 308.807,280.952 310.5,278C 307.975,277.576 305.975,276.41 304.5,274.5C 304.56,273.957 304.893,273.624 305.5,273.5C 307.179,274.782 309.013,275.782 311,276.5C 312.256,274.246 313.423,271.912 314.5,269.5C 313.757,268.818 313.091,268.151 312.5,267.5C 314.924,264.992 316.59,261.992 317.5,258.5C 319.408,258.883 320.908,259.883 322,261.5C 322.496,259.965 322.33,258.465 321.5,257C 322.167,255 322.833,253 323.5,251C 323.241,249.739 322.574,248.739 321.5,248C 322.784,247.316 323.951,247.483 325,248.5C 327.244,245.414 326.411,243.414 322.5,242.5C 321.712,243.77 320.712,244.77 319.5,245.5C 319.423,239.238 319.756,232.905 320.5,226.5C 318.097,226.448 315.764,226.781 313.5,227.5C 316.415,223.631 319.415,223.631 322.5,227.5C 323.996,224.672 326.329,223.006 329.5,222.5C 332.538,224.519 335.871,225.686 339.5,226C 340.756,226.417 341.423,227.25 341.5,228.5 Z"/></g>
<g><path style="opacity:1" fill="#d3d3d3" d="M 162.5,242.5 C 164.957,245.751 166.624,249.418 167.5,253.5C 166.761,253.369 166.094,253.536 165.5,254C 165.07,254.92 164.736,255.753 164.5,256.5C 163.712,255.23 162.712,254.23 161.5,253.5C 161.514,250.373 160.514,247.707 158.5,245.5C 158.747,244.287 159.414,243.62 160.5,243.5C 161.167,243.167 161.833,242.833 162.5,242.5 Z"/></g>
<g><path style="opacity:1" fill="#595959" d="M 164.5,237.5 C 164.338,239.527 164.505,241.527 165,243.5C 166.741,246.309 167.908,249.309 168.5,252.5C 171.877,252.068 174.877,252.735 177.5,254.5C 175.658,254.277 173.825,253.943 172,253.5C 170.301,253.387 169.134,254.053 168.5,255.5C 166.302,255.591 165.969,254.925 167.5,253.5C 166.624,249.418 164.957,245.751 162.5,242.5C 163.161,239.213 163.661,235.88 164,232.5C 164.494,234.134 164.66,235.801 164.5,237.5 Z"/></g>
<g><path style="opacity:0.227" fill="#909090" d="M 338.5,250.5 C 338.59,253.152 337.924,255.485 336.5,257.5C 336.41,254.848 337.076,252.515 338.5,250.5 Z"/></g>
<g><path style="opacity:1" fill="#f1f1f1" d="M 177.5,254.5 C 178.5,255.833 179.5,257.167 180.5,258.5C 180.011,259.995 179.345,261.329 178.5,262.5C 178.155,259.802 176.822,257.802 174.5,256.5C 172.735,255.539 170.735,255.205 168.5,255.5C 169.134,254.053 170.301,253.387 172,253.5C 173.825,253.943 175.658,254.277 177.5,254.5 Z"/></g>
<g><path style="opacity:1" fill="#878787" d="M 292.5,251.5 C 293.905,254.036 295.405,256.37 297,258.5C 295.667,257.833 294.333,257.167 293,256.5C 292.047,258.373 290.88,258.706 289.5,257.5C 290.514,255.426 291.514,253.426 292.5,251.5 Z"/></g>
<g><path style="opacity:1" fill="#8d8d8d" d="M 161.5,253.5 C 162.712,254.23 163.712,255.23 164.5,256.5C 164.736,255.753 165.07,254.92 165.5,254C 166.094,253.536 166.761,253.369 167.5,253.5C 165.969,254.925 166.302,255.591 168.5,255.5C 170.735,255.205 172.735,255.539 174.5,256.5C 172.097,256.448 169.764,256.781 167.5,257.5C 166.732,258.263 166.232,259.263 166,260.5C 165.667,259.5 165.333,258.5 165,257.5C 164.727,259.329 163.893,260.829 162.5,262C 164.798,263.086 166.798,264.586 168.5,266.5C 168.376,267.107 168.043,267.44 167.5,267.5C 166.185,266.524 164.852,265.524 163.5,264.5C 161.438,264.854 159.438,265.021 157.5,265C 160.508,261.859 161.842,258.026 161.5,253.5 Z"/></g>
<g><path style="opacity:1" fill="#f0f0f0" d="M 174.5,256.5 C 175.441,258.466 176.441,260.466 177.5,262.5C 174.621,263.08 172.954,264.747 172.5,267.5C 169.325,265.008 167.659,261.674 167.5,257.5C 169.764,256.781 172.097,256.448 174.5,256.5 Z"/></g>
<g><path style="opacity:0.79" fill="#515151" d="M 146.5,251.5 C 148.258,254.854 149.258,258.521 149.5,262.5C 147.742,259.146 146.742,255.479 146.5,251.5 Z"/></g>
<g><path style="opacity:1" fill="#f2f2f2" d="M 317.5,258.5 C 316.59,261.992 314.924,264.992 312.5,267.5C 311.829,266.153 311.829,264.986 312.5,264C 310.941,263.02 309.274,262.187 307.5,261.5C 309.605,256.215 312.939,255.215 317.5,258.5 Z"/></g>
<g><path style="opacity:1" fill="#b3b3b3" d="M 185.5,265.5 C 183.956,265.297 182.622,264.63 181.5,263.5C 180.583,264.127 179.583,264.461 178.5,264.5C 178.5,263.833 178.5,263.167 178.5,262.5C 179.345,261.329 180.011,259.995 180.5,258.5C 181.151,259.091 181.818,259.757 182.5,260.5C 182.911,259.738 183.077,258.738 183,257.5C 184.333,258.833 185.667,260.167 187,261.5C 187.484,263.193 186.984,264.527 185.5,265.5 Z"/></g>
<g><path style="opacity:1" fill="#0e130b" d="M 256.5,248.5 C 257.167,248.5 257.833,248.5 258.5,248.5C 260.305,250.449 261.305,252.782 261.5,255.5C 261.183,261.698 260.016,267.698 258,273.5C 256.89,275.037 255.39,275.703 253.5,275.5C 251.903,287.961 244.903,292.295 232.5,288.5C 230.614,287.07 228.947,285.403 227.5,283.5C 228.476,278.775 226.976,275.108 223,272.5C 220.892,265.974 220.225,259.308 221,252.5C 221.377,251.058 222.21,250.058 223.5,249.5C 229.37,250.766 235.37,250.766 241.5,249.5C 246.453,248.671 251.453,248.337 256.5,248.5 Z"/></g>
<g><path style="opacity:1" fill="#607230" d="M 247.5,257.5 C 239.35,258.493 231.017,258.826 222.5,258.5C 222.244,256.208 222.577,254.041 223.5,252C 234.83,251.14 246.163,250.807 257.5,251C 259.229,252.789 259.896,254.956 259.5,257.5C 255.5,257.5 251.5,257.5 247.5,257.5 Z"/></g>
<g><path style="opacity:1" fill="#7a962e" d="M 247.5,257.5 C 239.813,257.54 232.146,257.207 224.5,256.5C 224.5,255.167 224.5,253.833 224.5,252.5C 235.172,252.333 245.839,252.5 256.5,253C 257.711,253.893 257.711,254.726 256.5,255.5C 253.36,256.089 250.36,256.756 247.5,257.5 Z"/></g>
<g><path style="opacity:1" fill="#195830" d="M 252.5,267.5 C 249.038,268.482 245.371,268.815 241.5,268.5C 236.349,267.673 231.016,267.173 225.5,267C 223.709,264.894 223.042,262.394 223.5,259.5C 235.167,259.5 246.833,259.5 258.5,259.5C 258.739,261.467 258.406,263.301 257.5,265C 252.547,265.995 247.547,266.662 242.5,267C 245.817,267.498 249.15,267.665 252.5,267.5 Z"/></g>
<g><path style="opacity:1" fill="#545454" d="M 196.5,259.5 C 198.509,261.543 200.509,263.543 202.5,265.5C 199.729,265.579 197.063,265.079 194.5,264C 195.833,263.667 197.167,263.333 198.5,263C 197.177,262.184 196.511,261.017 196.5,259.5 Z"/></g>
<g><path style="opacity:1" fill="#f6f6f6" d="M 185.5,265.5 C 186.987,268.212 186.321,270.379 183.5,272C 185.258,271.656 187.091,271.156 189,270.5C 193.262,272.052 197.429,273.719 201.5,275.5C 202.072,277.255 202.906,278.922 204,280.5C 206.01,279.152 208.01,277.818 210,276.5C 211.9,277.077 213.733,277.744 215.5,278.5C 215.063,280.074 214.063,281.241 212.5,282C 214.952,282.29 217.285,282.956 219.5,284C 219.167,284.333 218.833,284.667 218.5,285C 221.021,287.22 223.188,289.72 225,292.5C 225.333,291.5 225.667,290.5 226,289.5C 226.837,291.844 228.171,293.844 230,295.5C 230.905,302.214 228.072,306.047 221.5,307C 223.929,307.703 226.262,307.537 228.5,306.5C 228.833,306.5 229.167,306.5 229.5,306.5C 232.413,309.735 231.747,311.568 227.5,312C 228.696,311.346 228.696,310.846 227.5,310.5C 224.713,312.227 221.713,313.394 218.5,314C 216.944,314.72 215.944,315.887 215.5,317.5C 216.36,319.614 218.027,320.78 220.5,321C 215.063,324.521 215.229,325.021 221,322.5C 221.167,322.833 221.333,323.167 221.5,323.5C 219.488,325.106 217.155,326.273 214.5,327C 216.167,327.333 217.833,327.667 219.5,328C 217.78,329.616 216.114,331.116 214.5,332.5C 214.511,331.559 214.011,330.892 213,330.5C 211.415,331.044 209.915,331.711 208.5,332.5C 206.974,331.895 205.974,330.729 205.5,329C 206.197,326.291 206.53,323.624 206.5,321C 203.785,320.125 202.452,318.292 202.5,315.5C 201.272,313.99 201.272,312.49 202.5,311C 199.507,310.573 199.007,309.406 201,307.5C 203.653,307.966 206.487,308.8 209.5,310C 210.076,312.268 211.41,313.268 213.5,313C 212.833,312.333 212.167,311.667 211.5,311C 217.837,310.163 217.503,309.497 210.5,309C 221.099,307.53 221.099,306.363 210.5,305.5C 206.785,302.452 203.452,299.119 200.5,295.5C 198.412,294.799 196.412,293.799 194.5,292.5C 192.804,292.315 191.471,291.481 190.5,290C 191.79,287.708 193.457,285.708 195.5,284C 192.588,282.627 189.754,281.127 187,279.5C 186.667,279.833 186.333,280.167 186,280.5C 184.684,279.026 183.684,277.359 183,275.5C 182.333,276.167 181.667,276.833 181,277.5C 180.917,275.494 180.417,274.494 179.5,274.5C 177.733,275.256 175.9,275.923 174,276.5C 172.97,276.164 172.47,275.497 172.5,274.5C 172.5,274.167 172.5,273.833 172.5,273.5C 171.26,272.027 170.26,270.36 169.5,268.5C 170.472,268.407 171.472,268.074 172.5,267.5C 174.053,265.615 176.053,264.615 178.5,264.5C 179.583,264.461 180.583,264.127 181.5,263.5C 182.622,264.63 183.956,265.297 185.5,265.5 Z"/></g>
<g><path style="opacity:1" fill="#606060" d="M 298.5,266.5 C 298.297,268.39 298.963,269.89 300.5,271C 299.004,271.507 297.837,271.007 297,269.5C 295.989,270.337 294.822,270.67 293.5,270.5C 294.246,268.657 295.579,267.324 297.5,266.5C 292.59,264.448 287.59,264.115 282.5,265.5C 283.5,263.833 284.833,262.5 286.5,261.5C 288.322,263.234 290.655,264.234 293.5,264.5C 294.489,261.852 296.156,259.852 298.5,258.5C 299.363,257.537 300.03,257.537 300.5,258.5C 298.973,260.193 297.64,262.027 296.5,264C 298.935,264.075 299.602,264.908 298.5,266.5 Z"/></g>
<g><path style="opacity:1" fill="#757575" d="M 174.5,256.5 C 176.822,257.802 178.155,259.802 178.5,262.5C 178.5,263.167 178.5,263.833 178.5,264.5C 176.053,264.615 174.053,265.615 172.5,267.5C 172.954,264.747 174.621,263.08 177.5,262.5C 176.441,260.466 175.441,258.466 174.5,256.5 Z"/></g>
<g><path style="opacity:1" fill="#ebebeb" d="M 191.5,256.5 C 192.5,256.5 193.5,256.5 194.5,256.5C 195.906,256.973 196.573,257.973 196.5,259.5C 196.511,261.017 197.177,262.184 198.5,263C 197.167,263.333 195.833,263.667 194.5,264C 197.063,265.079 199.729,265.579 202.5,265.5C 203.492,265.328 204.158,265.662 204.5,266.5C 205.167,267.833 206.167,268.833 207.5,269.5C 207.5,270.5 207.5,271.5 207.5,272.5C 204.734,271.768 202.068,271.768 199.5,272.5C 197.692,272.509 196.025,272.009 194.5,271C 194.957,270.586 195.291,270.086 195.5,269.5C 194.502,266.972 193.669,266.972 193,269.5C 192.138,267.406 190.972,266.406 189.5,266.5C 190.833,265.833 192.167,265.167 193.5,264.5C 191.611,263.396 189.945,262.063 188.5,260.5C 189.524,259.148 190.524,257.815 191.5,256.5 Z"/></g>
<g><path style="opacity:1" fill="#dbdbdb" d="M 293.5,270.5 C 290.899,271.801 288.232,273.134 285.5,274.5C 281.688,273.676 277.688,273.176 273.5,273C 274.381,272.292 275.047,271.458 275.5,270.5C 276.992,267.677 279.326,266.01 282.5,265.5C 287.59,264.115 292.59,264.448 297.5,266.5C 295.579,267.324 294.246,268.657 293.5,270.5 Z"/></g>
<g><path style="opacity:1" fill="#ececec" d="M 341.5,228.5 C 341.004,231.979 340.004,235.313 338.5,238.5C 339.647,241.746 338.98,244.579 336.5,247C 337.973,247.71 338.64,248.876 338.5,250.5C 337.076,252.515 336.41,254.848 336.5,257.5C 336.258,261.479 335.258,265.146 333.5,268.5C 332.5,268.5 331.5,268.5 330.5,268.5C 330.483,270.565 330.15,272.565 329.5,274.5C 328.094,274.973 327.427,275.973 327.5,277.5C 325.241,278.344 324.241,280.011 324.5,282.5C 323.471,285.891 321.471,288.557 318.5,290.5C 315.729,290.421 313.063,290.921 310.5,292C 304.184,296.666 297.517,299.833 290.5,301.5C 289.662,301.158 289.328,300.492 289.5,299.5C 290.254,297.495 291.421,296.828 293,297.5C 293.451,294.222 294.951,291.556 297.5,289.5C 301.133,287.557 304.799,285.557 308.5,283.5C 309.086,283.709 309.586,284.043 310,284.5C 311.091,282.282 312.257,280.116 313.5,278C 314.996,277.493 316.163,277.993 317,279.5C 317.21,276.766 318.044,274.266 319.5,272C 317.328,268.437 318.328,265.603 322.5,263.5C 327.706,266.419 328.373,265.919 324.5,262C 322.97,256.099 324.137,251.599 328,248.5C 329.049,249.517 330.216,249.684 331.5,249C 330.033,247.902 329.199,246.402 329,244.5C 328.722,240.806 328.722,237.139 329,233.5C 327.05,245.028 324.55,245.361 321.5,234.5C 321.737,231.937 322.237,231.937 323,234.5C 323.413,231.768 324.08,229.101 325,226.5C 326.808,224.604 328.975,224.104 331.5,225C 332.517,226.049 332.684,227.216 332,228.5C 330.663,227.235 329.163,226.735 327.5,227C 329.049,228.214 330.215,229.714 331,231.5C 333.645,227.585 337.145,226.585 341.5,228.5 Z"/></g>
<g><path style="opacity:1" fill="#646464" d="M 167.5,257.5 C 167.659,261.674 169.325,265.008 172.5,267.5C 171.472,268.074 170.472,268.407 169.5,268.5C 170.26,270.36 171.26,272.027 172.5,273.5C 169.612,273.22 168.112,274.553 168,277.5C 167.601,277.272 167.435,276.938 167.5,276.5C 167.5,273.5 167.5,270.5 167.5,267.5C 168.043,267.44 168.376,267.107 168.5,266.5C 166.798,264.586 164.798,263.086 162.5,262C 163.893,260.829 164.727,259.329 165,257.5C 165.333,258.5 165.667,259.5 166,260.5C 166.232,259.263 166.732,258.263 167.5,257.5 Z"/></g>
<g><path style="opacity:0.639" fill="#434343" d="M 149.5,262.5 C 150.677,264.679 151.677,267.013 152.5,269.5C 153.11,270.391 153.443,271.391 153.5,272.5C 150.819,269.808 149.486,266.475 149.5,262.5 Z"/></g>
<g><path style="opacity:0.584" fill="#3c3c3d" d="M 204.5,266.5 C 206.404,266.738 207.738,267.738 208.5,269.5C 208.167,269.5 207.833,269.5 207.5,269.5C 206.167,268.833 205.167,267.833 204.5,266.5 Z"/></g>
<g><path style="opacity:1" fill="#6c803a" d="M 239.5,268.5 C 239.389,269.117 239.056,269.617 238.5,270C 234.789,270.175 231.122,270.675 227.5,271.5C 228.025,272.192 228.692,272.692 229.5,273C 237.159,273.5 244.826,273.666 252.5,273.5C 244.344,274.657 236.01,274.823 227.5,274C 225.329,272.826 224.329,270.993 224.5,268.5C 229.5,268.5 234.5,268.5 239.5,268.5 Z"/></g>
<g><path style="opacity:1" fill="#789331" d="M 252.5,273.5 C 244.826,273.666 237.159,273.5 229.5,273C 228.692,272.692 228.025,272.192 227.5,271.5C 231.122,270.675 234.789,270.175 238.5,270C 239.056,269.617 239.389,269.117 239.5,268.5C 240.167,268.5 240.833,268.5 241.5,268.5C 245.371,268.815 249.038,268.482 252.5,267.5C 257.431,265.983 258.598,267.65 256,272.5C 254.989,273.337 253.822,273.67 252.5,273.5 Z"/></g>
<g><path style="opacity:1" fill="#7a7a7a" d="M 333.5,268.5 C 332.66,270.853 331.326,272.853 329.5,274.5C 330.15,272.565 330.483,270.565 330.5,268.5C 331.5,268.5 332.5,268.5 333.5,268.5 Z"/></g>
<g><path style="opacity:1" fill="#f8f8f8" d="M 312.5,267.5 C 313.091,268.151 313.757,268.818 314.5,269.5C 313.423,271.912 312.256,274.246 311,276.5C 309.013,275.782 307.179,274.782 305.5,273.5C 304.893,273.624 304.56,273.957 304.5,274.5C 304.631,275.376 304.298,276.043 303.5,276.5C 301.227,277.651 298.894,278.651 296.5,279.5C 297.476,281.123 296.976,282.457 295,283.5C 294.667,283.167 294.333,282.833 294,282.5C 294.667,284.5 295.333,286.5 296,288.5C 294.721,286.063 293.221,285.563 291.5,287C 292.71,288.039 293.71,289.206 294.5,290.5C 292.951,292.42 291.284,293.42 289.5,293.5C 287.418,293.624 285.918,294.624 285,296.5C 284.667,296.167 284.333,295.833 284,295.5C 283.751,296.624 283.251,297.624 282.5,298.5C 279.485,301.509 276.152,304.176 272.5,306.5C 268.167,306.5 263.833,306.5 259.5,306.5C 253.45,302.911 252.45,297.911 256.5,291.5C 255.754,290.264 255.421,288.93 255.5,287.5C 256.694,286.728 257.694,285.728 258.5,284.5C 260.044,284.297 261.378,283.63 262.5,282.5C 263.719,283.263 264.719,284.263 265.5,285.5C 266.281,284.271 266.781,282.938 267,281.5C 267.718,282.451 268.551,282.617 269.5,282C 268.672,281.085 267.672,280.419 266.5,280C 269.953,277.76 273.619,276.427 277.5,276C 276.167,276.667 276.167,277.333 277.5,278C 282.034,280.134 283.034,279.134 280.5,275C 282.342,275.068 284.009,274.901 285.5,274.5C 288.232,273.134 290.899,271.801 293.5,270.5C 294.822,270.67 295.989,270.337 297,269.5C 297.837,271.007 299.004,271.507 300.5,271C 298.963,269.89 298.297,268.39 298.5,266.5C 300.394,265.952 302.06,264.952 303.5,263.5C 304.5,264.833 305.5,264.833 306.5,263.5C 308.79,264.467 310.79,265.8 312.5,267.5 Z"/></g>
<g><path style="opacity:1" fill="#a5a5a5" d="M 152.5,269.5 C 155.858,270.527 157.525,272.86 157.5,276.5C 157.167,276.5 156.833,276.5 156.5,276.5C 155.026,275.564 154.026,274.23 153.5,272.5C 153.443,271.391 153.11,270.391 152.5,269.5 Z"/></g>
<g><path style="opacity:1" fill="#a0a1a1" d="M 207.5,269.5 C 207.833,269.5 208.167,269.5 208.5,269.5C 212.692,273.087 217.025,276.42 221.5,279.5C 220.798,280.116 219.798,280.116 218.5,279.5C 217.391,279.443 216.391,279.11 215.5,278.5C 213.733,277.744 211.9,277.077 210,276.5C 208.01,277.818 206.01,279.152 204,280.5C 202.906,278.922 202.072,277.255 201.5,275.5C 202.609,274.71 203.942,274.21 205.5,274C 203.292,273.809 201.292,273.309 199.5,272.5C 202.068,271.768 204.734,271.768 207.5,272.5C 207.5,271.5 207.5,270.5 207.5,269.5 Z"/></g>
<g><path style="opacity:1" fill="#848484" d="M 275.5,270.5 C 275.047,271.458 274.381,272.292 273.5,273C 277.688,273.176 281.688,273.676 285.5,274.5C 284.009,274.901 282.342,275.068 280.5,275C 283.034,279.134 282.034,280.134 277.5,278C 276.167,277.333 276.167,276.667 277.5,276C 273.619,276.427 269.953,277.76 266.5,280C 267.672,280.419 268.672,281.085 269.5,282C 268.551,282.617 267.718,282.451 267,281.5C 266.781,282.938 266.281,284.271 265.5,285.5C 264.719,284.263 263.719,283.263 262.5,282.5C 261.378,283.63 260.044,284.297 258.5,284.5C 258.833,283.833 259.167,283.167 259.5,282.5C 260.29,281.206 261.29,280.039 262.5,279C 267.232,276.643 271.565,273.81 275.5,270.5 Z"/></g>
<g><path style="opacity:0.353" fill="#595959" d="M 329.5,274.5 C 329.573,276.027 328.906,277.027 327.5,277.5C 327.427,275.973 328.094,274.973 329.5,274.5 Z"/></g>
<g><path style="opacity:1" fill="#f8f8f7" d="M 247.5,275.5 C 248.5,275.5 249.5,275.5 250.5,275.5C 251.093,283.574 247.427,287.24 239.5,286.5C 231.901,287.567 228.567,284.234 229.5,276.5C 235.69,276.823 241.69,276.49 247.5,275.5 Z"/></g>
<g><path style="opacity:0.404" fill="#252525" d="M 156.5,276.5 C 156.833,276.5 157.167,276.5 157.5,276.5C 158.11,277.391 158.443,278.391 158.5,279.5C 157.094,279.027 156.427,278.027 156.5,276.5 Z"/></g>
<g><path style="opacity:1" fill="#b5b5b5" d="M 172.5,273.5 C 172.5,273.833 172.5,274.167 172.5,274.5C 171.761,274.369 171.094,274.536 170.5,275C 173.154,277.688 174.82,280.522 175.5,283.5C 175.44,284.043 175.107,284.376 174.5,284.5C 173.191,282.024 171.358,280.024 169,278.5C 168.586,278.957 168.086,279.291 167.5,279.5C 166.224,278.386 166.224,277.386 167.5,276.5C 167.435,276.938 167.601,277.272 168,277.5C 168.112,274.553 169.612,273.22 172.5,273.5 Z"/></g>
<g><path style="opacity:1" fill="#cacaca" d="M 304.5,274.5 C 305.975,276.41 307.975,277.576 310.5,278C 308.807,280.952 306.974,281.118 305,278.5C 305.195,280.126 305.195,281.793 305,283.5C 302.156,285.159 299.656,287.159 297.5,289.5C 296.391,289.557 295.391,289.89 294.5,290.5C 293.71,289.206 292.71,288.039 291.5,287C 293.221,285.563 294.721,286.063 296,288.5C 295.333,286.5 294.667,284.5 294,282.5C 294.333,282.833 294.667,283.167 295,283.5C 296.976,282.457 297.476,281.123 296.5,279.5C 298.894,278.651 301.227,277.651 303.5,276.5C 304.298,276.043 304.631,275.376 304.5,274.5 Z"/></g>
<g><path style="opacity:0.486" fill="#2e2e2e" d="M 158.5,279.5 C 160.25,280.659 161.25,282.326 161.5,284.5C 159.75,283.341 158.75,281.674 158.5,279.5 Z"/></g>
<g><path style="opacity:0.978" fill="#595a5a" d="M 218.5,279.5 C 219.798,280.116 220.798,280.116 221.5,279.5C 223.754,280.415 225.754,281.748 227.5,283.5C 228.947,285.403 230.614,287.07 232.5,288.5C 233.6,289.605 234.267,290.938 234.5,292.5C 229.746,287.409 224.413,283.076 218.5,279.5 Z"/></g>
<g><path style="opacity:1" fill="#696969" d="M 172.5,274.5 C 172.47,275.497 172.97,276.164 174,276.5C 175.9,275.923 177.733,275.256 179.5,274.5C 179.607,276.903 178.607,278.736 176.5,280C 177.5,280.333 178.5,280.667 179.5,281C 178.434,282.159 178.767,282.992 180.5,283.5C 179.368,284.354 178.035,284.354 176.5,283.5C 176.167,283.5 175.833,283.5 175.5,283.5C 174.82,280.522 173.154,277.688 170.5,275C 171.094,274.536 171.761,274.369 172.5,274.5 Z"/></g>
<g><path style="opacity:0.353" fill="#6a6a6a" d="M 327.5,277.5 C 326.89,279.434 325.89,281.101 324.5,282.5C 324.241,280.011 325.241,278.344 327.5,277.5 Z"/></g>
<g><path style="opacity:1" fill="#dcdcdc" d="M 215.5,278.5 C 216.391,279.11 217.391,279.443 218.5,279.5C 224.413,283.076 229.746,287.409 234.5,292.5C 235.218,294.137 235.384,295.803 235,297.5C 233.744,301.242 231.577,304.242 228.5,306.5C 226.262,307.537 223.929,307.703 221.5,307C 228.072,306.047 230.905,302.214 230,295.5C 228.171,293.844 226.837,291.844 226,289.5C 225.667,290.5 225.333,291.5 225,292.5C 223.188,289.72 221.021,287.22 218.5,285C 218.833,284.667 219.167,284.333 219.5,284C 217.285,282.956 214.952,282.29 212.5,282C 214.063,281.241 215.063,280.074 215.5,278.5 Z"/></g>
<g><path style="opacity:0.484" fill="#313134" d="M 259.5,282.5 C 259.167,283.167 258.833,283.833 258.5,284.5C 257.694,285.728 256.694,286.728 255.5,287.5C 254.778,288.551 253.778,289.218 252.5,289.5C 253.855,286.145 256.189,283.811 259.5,282.5 Z"/></g>
<g><path style="opacity:0.22" fill="#353535" d="M 161.5,284.5 C 162.906,284.973 163.573,285.973 163.5,287.5C 162.094,287.027 161.427,286.027 161.5,284.5 Z"/></g>
<g><path style="opacity:1" fill="#9d9d9d" d="M 176.5,283.5 C 178.035,284.354 179.368,284.354 180.5,283.5C 183.988,286.088 187.321,288.922 190.5,292C 190.272,292.399 189.938,292.565 189.5,292.5C 185.823,289.66 181.823,287.327 177.5,285.5C 176.702,285.043 176.369,284.376 176.5,283.5 Z"/></g>
<g><path style="opacity:1" fill="#cacaca" d="M 194.5,292.5 C 193.992,294.233 193.159,294.566 192,293.5C 191.26,294.749 191.427,295.749 192.5,296.5C 191.828,297.267 190.995,297.934 190,298.5C 189.505,296.527 189.338,294.527 189.5,292.5C 189.938,292.565 190.272,292.399 190.5,292C 187.321,288.922 183.988,286.088 180.5,283.5C 178.767,282.992 178.434,282.159 179.5,281C 178.5,280.667 177.5,280.333 176.5,280C 178.607,278.736 179.607,276.903 179.5,274.5C 180.417,274.494 180.917,275.494 181,277.5C 181.667,276.833 182.333,276.167 183,275.5C 183.684,277.359 184.684,279.026 186,280.5C 186.333,280.167 186.667,279.833 187,279.5C 189.754,281.127 192.588,282.627 195.5,284C 193.457,285.708 191.79,287.708 190.5,290C 191.471,291.481 192.804,292.315 194.5,292.5 Z"/></g>
<g><path style="opacity:0.541" fill="#1a1a1a" d="M 163.5,287.5 C 164.833,288.5 166.167,289.5 167.5,290.5C 167.833,291.167 168.167,291.833 168.5,292.5C 165.833,291.833 164.167,290.167 163.5,287.5 Z"/></g>
<g><path style="opacity:0.91" fill="#393939" d="M 252.5,289.5 C 252.262,291.404 251.262,292.738 249.5,293.5C 249.738,291.596 250.738,290.262 252.5,289.5 Z"/></g>
<g><path style="opacity:1" fill="#858585" d="M 167.5,290.5 C 172.396,291.619 177.063,293.285 181.5,295.5C 181.351,296.552 181.517,297.552 182,298.5C 184.468,297.799 186.635,298.466 188.5,300.5C 189.058,301.79 190.058,302.623 191.5,303C 191.056,304.533 190.723,306.033 190.5,307.5C 193.187,311.021 196.353,314.021 200,316.5C 200.671,315.748 201.504,315.414 202.5,315.5C 202.452,318.292 203.785,320.125 206.5,321C 206.53,323.624 206.197,326.291 205.5,329C 205.974,330.729 206.974,331.895 208.5,332.5C 207.047,333.825 207.381,334.658 209.5,335C 208.619,335.708 207.953,336.542 207.5,337.5C 206.522,337.811 205.855,338.478 205.5,339.5C 205.712,342.652 205.712,345.985 205.5,349.5C 204.887,352.137 204.887,354.97 205.5,358C 204.956,358.717 204.289,359.217 203.5,359.5C 203.5,359.167 203.5,358.833 203.5,358.5C 203.592,352.489 203.925,346.489 204.5,340.5C 204.656,332.14 202.489,324.473 198,317.5C 194.629,314.297 191.462,310.964 188.5,307.5C 187.415,305.413 185.749,304.08 183.5,303.5C 181.557,300.529 178.891,298.529 175.5,297.5C 172.865,296.189 170.531,294.522 168.5,292.5C 168.167,291.833 167.833,291.167 167.5,290.5 Z"/></g>
<g><path style="opacity:1" fill="#6f6f6f" d="M 297.5,289.5 C 294.951,291.556 293.451,294.222 293,297.5C 291.421,296.828 290.254,297.495 289.5,299.5C 289.167,299.5 288.833,299.5 288.5,299.5C 288.279,298.265 287.612,297.265 286.5,296.5C 286.846,295.304 287.346,295.304 288,296.5C 288.513,295.473 289.013,294.473 289.5,293.5C 291.284,293.42 292.951,292.42 294.5,290.5C 295.391,289.89 296.391,289.557 297.5,289.5 Z"/></g>
<g><path style="opacity:1" fill="#7e7e7e" d="M 194.5,292.5 C 196.412,293.799 198.412,294.799 200.5,295.5C 200.611,297.648 199.944,297.981 198.5,296.5C 197.265,297.34 196.265,298.34 195.5,299.5C 194.496,298.317 193.662,296.984 193,295.5C 192.601,295.728 192.435,296.062 192.5,296.5C 191.427,295.749 191.26,294.749 192,293.5C 193.159,294.566 193.992,294.233 194.5,292.5 Z"/></g>
<g><path style="opacity:1" fill="#262626" d="M 175.5,297.5 C 178.891,298.529 181.557,300.529 183.5,303.5C 180.467,301.984 177.8,299.984 175.5,297.5 Z"/></g>
<g><path style="opacity:1" fill="#c7c7c7" d="M 255.5,287.5 C 255.421,288.93 255.754,290.264 256.5,291.5C 252.45,297.911 253.45,302.911 259.5,306.5C 257.064,306.317 254.897,306.984 253,308.5C 252.601,308.272 252.435,307.938 252.5,307.5C 253.429,306.685 254.429,305.852 255.5,305C 253.056,305.553 250.889,304.719 249,302.5C 248.333,301.833 248.333,301.167 249,300.5C 249.718,301.451 250.551,301.617 251.5,301C 249.887,298.772 249.22,296.272 249.5,293.5C 251.262,292.738 252.262,291.404 252.5,289.5C 253.778,289.218 254.778,288.551 255.5,287.5 Z"/></g>
<g><path style="opacity:1" fill="#a4a4a4" d="M 289.5,293.5 C 289.013,294.473 288.513,295.473 288,296.5C 287.346,295.304 286.846,295.304 286.5,296.5C 287.612,297.265 288.279,298.265 288.5,299.5C 287.145,300.799 286.145,302.633 285.5,305C 281.687,305.148 278.521,306.648 276,309.5C 274.855,308.364 273.688,307.364 272.5,306.5C 276.152,304.176 279.485,301.509 282.5,298.5C 283.251,297.624 283.751,296.624 284,295.5C 284.333,295.833 284.667,296.167 285,296.5C 285.918,294.624 287.418,293.624 289.5,293.5 Z"/></g>
<g><path style="opacity:1" fill="#8c8c8c" d="M 318.5,290.5 C 309.72,297.73 300.72,304.73 291.5,311.5C 290.209,308.293 291.209,307.126 294.5,308C 292.103,305.974 290.77,303.807 290.5,301.5C 297.517,299.833 304.184,296.666 310.5,292C 313.063,290.921 315.729,290.421 318.5,290.5 Z"/></g>
<g><path style="opacity:1" fill="#bcbcbc" d="M 200.5,295.5 C 203.452,299.119 206.785,302.452 210.5,305.5C 221.099,306.363 221.099,307.53 210.5,309C 217.503,309.497 217.837,310.163 211.5,311C 212.167,311.667 212.833,312.333 213.5,313C 211.41,313.268 210.076,312.268 209.5,310C 206.487,308.8 203.653,307.966 201,307.5C 199.007,309.406 199.507,310.573 202.5,311C 201.272,312.49 201.272,313.99 202.5,315.5C 201.504,315.414 200.671,315.748 200,316.5C 196.353,314.021 193.187,311.021 190.5,307.5C 190.723,306.033 191.056,304.533 191.5,303C 190.058,302.623 189.058,301.79 188.5,300.5C 190.978,299.457 193.145,300.124 195,302.5C 196.728,301.648 196.895,300.648 195.5,299.5C 196.265,298.34 197.265,297.34 198.5,296.5C 199.944,297.981 200.611,297.648 200.5,295.5 Z"/></g>
<g><path style="opacity:0.996" fill="#2b2b2b" d="M 183.5,303.5 C 185.749,304.08 187.415,305.413 188.5,307.5C 186.251,306.92 184.585,305.587 183.5,303.5 Z"/></g>
<g><path style="opacity:1" fill="#919191" d="M 234.5,292.5 C 236.588,294.336 237.921,296.669 238.5,299.5C 235.758,298.606 235.091,299.606 236.5,302.5C 235.333,304.167 234.167,305.833 233,307.5C 232.047,305.627 230.88,305.294 229.5,306.5C 229.167,306.5 228.833,306.5 228.5,306.5C 231.577,304.242 233.744,301.242 235,297.5C 235.384,295.803 235.218,294.137 234.5,292.5 Z"/></g>
<g><path style="opacity:1" fill="#909090" d="M 249.5,293.5 C 249.22,296.272 249.887,298.772 251.5,301C 250.551,301.617 249.718,301.451 249,300.5C 248.333,301.167 248.333,301.833 249,302.5C 250.889,304.719 253.056,305.553 255.5,305C 254.429,305.852 253.429,306.685 252.5,307.5C 251.5,307.5 250.5,307.5 249.5,307.5C 249.649,306.448 249.483,305.448 249,304.5C 248.346,303.304 247.846,303.304 247.5,304.5C 248.167,306.167 248.833,307.833 249.5,309.5C 249.376,310.107 249.043,310.44 248.5,310.5C 247.77,309.288 246.77,308.288 245.5,307.5C 247.092,305.775 246.758,304.775 244.5,304.5C 244.837,300.164 246.504,296.497 249.5,293.5 Z"/></g>
<g><path style="opacity:1" fill="#cdcdcd" d="M 288.5,299.5 C 288.833,299.5 289.167,299.5 289.5,299.5C 289.328,300.492 289.662,301.158 290.5,301.5C 290.77,303.807 292.103,305.974 294.5,308C 291.209,307.126 290.209,308.293 291.5,311.5C 289.9,310.748 288.4,309.748 287,308.5C 286.097,309.701 284.931,310.535 283.5,311C 286.228,311.639 286.728,312.806 285,314.5C 283.583,313.922 282.75,312.922 282.5,311.5C 282.688,309.897 282.188,308.563 281,307.5C 277.991,310.585 274.491,312.419 270.5,313C 269.833,312.667 269.167,312.333 268.5,312C 269.899,311.405 271.232,311.572 272.5,312.5C 273.429,311.311 273.762,309.978 273.5,308.5C 268.662,308.089 263.995,307.422 259.5,306.5C 263.833,306.5 268.167,306.5 272.5,306.5C 273.688,307.364 274.855,308.364 276,309.5C 278.521,306.648 281.687,305.148 285.5,305C 286.145,302.633 287.145,300.799 288.5,299.5 Z"/></g>
<g><path style="opacity:1" fill="#cccccc" d="M 238.5,299.5 C 238.674,301.861 239.007,304.194 239.5,306.5C 237.09,307.383 234.757,308.55 232.5,310C 235.035,310.617 237.368,310.117 239.5,308.5C 240.015,310.846 240.348,313.513 240.5,316.5C 237.225,316.233 236.392,317.233 238,319.5C 238.667,318.833 239.333,318.167 240,317.5C 240.495,319.473 240.662,321.473 240.5,323.5C 239.325,323.281 238.325,323.614 237.5,324.5C 238.616,324.402 239.616,324.902 240.5,326C 240.252,327.749 239.252,328.582 237.5,328.5C 234.266,327.006 233.933,325.173 236.5,323C 235.5,322.667 234.5,322.333 233.5,322C 236.112,319.849 236.112,319.015 233.5,319.5C 231.743,316.703 229.41,315.703 226.5,316.5C 224.65,315.758 223.984,314.758 224.5,313.5C 222.459,314.236 220.459,315.069 218.5,316C 220.795,316.984 220.461,317.817 217.5,318.5C 216.817,318.137 216.15,317.804 215.5,317.5C 215.944,315.887 216.944,314.72 218.5,314C 221.713,313.394 224.713,312.227 227.5,310.5C 228.696,310.846 228.696,311.346 227.5,312C 231.747,311.568 232.413,309.735 229.5,306.5C 230.88,305.294 232.047,305.627 233,307.5C 234.167,305.833 235.333,304.167 236.5,302.5C 235.091,299.606 235.758,298.606 238.5,299.5 Z"/></g>
<g><path style="opacity:1" fill="#bababa" d="M 244.5,304.5 C 246.758,304.775 247.092,305.775 245.5,307.5C 246.77,308.288 247.77,309.288 248.5,310.5C 248.309,314.449 249.642,314.949 252.5,312C 251.549,311.282 251.383,310.449 252,309.5C 253.529,310.729 254.696,312.229 255.5,314C 253.826,315.506 252.826,317.339 252.5,319.5C 251.448,319.351 250.448,319.517 249.5,320C 249.833,320.333 250.167,320.667 250.5,321C 248.519,321.605 248.185,322.605 249.5,324C 248.833,324.667 248.167,325.333 247.5,326C 248.087,328.562 248.421,331.228 248.5,334C 247.773,335.399 247.273,336.899 247,338.5C 246.578,336.574 245.411,335.574 243.5,335.5C 243.335,331.818 243.501,328.152 244,324.5C 244.654,325.696 245.154,325.696 245.5,324.5C 244.833,323.833 244.167,323.167 243.5,322.5C 243.712,320.165 244.379,317.665 245.5,315C 245.06,311.757 244.727,308.257 244.5,304.5 Z"/></g>
<g><path style="opacity:0.993" fill="#fafafa" d="M 237.5,328.5 C 236.375,329.652 236.375,330.652 237.5,331.5C 236.221,335.608 236.221,339.774 237.5,344C 235.219,345.482 235.219,347.149 237.5,349C 235.224,350.874 235.557,352.541 238.5,354C 236.061,354.533 235.395,355.7 236.5,357.5C 237.064,364.885 237.064,372.551 236.5,380.5C 235.733,381.172 235.066,382.005 234.5,383C 235.374,385.035 235.707,387.368 235.5,390C 234.619,390.708 233.953,391.542 233.5,392.5C 225.832,392.095 218.165,391.595 210.5,391C 206.535,390.892 202.868,390.059 199.5,388.5C 200.683,387.496 202.016,386.662 203.5,386C 202.833,385.667 202.167,385.333 201.5,385C 203.316,381.725 204.982,378.392 206.5,375C 205.167,375 203.833,375 202.5,375C 205.055,372.801 205.055,371.635 202.5,371.5C 202.833,367.5 203.167,363.5 203.5,359.5C 204.289,359.217 204.956,358.717 205.5,358C 204.887,354.97 204.887,352.137 205.5,349.5C 206.675,349.719 207.675,349.386 208.5,348.5C 207.359,347.575 207.359,346.741 208.5,346C 207.833,345.667 207.167,345.333 206.5,345C 209.112,343.592 211.779,342.258 214.5,341C 212.189,341.155 209.856,341.155 207.5,341C 211.445,339.591 211.445,338.425 207.5,337.5C 207.953,336.542 208.619,335.708 209.5,335C 207.381,334.658 207.047,333.825 208.5,332.5C 209.915,331.711 211.415,331.044 213,330.5C 214.011,330.892 214.511,331.559 214.5,332.5C 216.114,331.116 217.78,329.616 219.5,328C 217.833,327.667 216.167,327.333 214.5,327C 217.155,326.273 219.488,325.106 221.5,323.5C 221.333,323.167 221.167,322.833 221,322.5C 215.229,325.021 215.063,324.521 220.5,321C 218.027,320.78 216.36,319.614 215.5,317.5C 216.15,317.804 216.817,318.137 217.5,318.5C 220.461,317.817 220.795,316.984 218.5,316C 220.459,315.069 222.459,314.236 224.5,313.5C 223.984,314.758 224.65,315.758 226.5,316.5C 229.41,315.703 231.743,316.703 233.5,319.5C 236.112,319.015 236.112,319.849 233.5,322C 234.5,322.333 235.5,322.667 236.5,323C 233.933,325.173 234.266,327.006 237.5,328.5 Z"/></g>
<g><path style="opacity:0.989" fill="#f7f7f7" d="M 252.5,307.5 C 252.435,307.938 252.601,308.272 253,308.5C 254.897,306.984 257.064,306.317 259.5,306.5C 263.995,307.422 268.662,308.089 273.5,308.5C 273.762,309.978 273.429,311.311 272.5,312.5C 271.232,311.572 269.899,311.405 268.5,312C 269.167,312.333 269.833,312.667 270.5,313C 274.491,312.419 277.991,310.585 281,307.5C 282.188,308.563 282.688,309.897 282.5,311.5C 279.635,313.542 279.968,314.708 283.5,315C 282.833,318.333 280.833,320.333 277.5,321C 278.756,321.417 279.423,322.25 279.5,323.5C 281.031,324.925 280.698,325.591 278.5,325.5C 277.814,326.848 276.814,328.015 275.5,329C 276.448,329.483 277.448,329.649 278.5,329.5C 278.64,331.124 277.973,332.29 276.5,333C 278.589,336.123 277.922,336.29 274.5,333.5C 273.914,333.709 273.414,334.043 273,334.5C 271.833,332.667 270.333,331.167 268.5,330C 269.5,329.667 270.5,329.333 271.5,329C 269.728,327.513 267.728,327.18 265.5,328C 269.091,331.891 272.425,335.891 275.5,340C 274.322,340.967 272.989,341.467 271.5,341.5C 273.816,342.496 275.483,344.163 276.5,346.5C 277.417,347.127 278.417,347.461 279.5,347.5C 279.66,349.199 279.494,350.866 279,352.5C 278.282,351.549 277.449,351.383 276.5,352C 277.833,352.667 277.833,353.333 276.5,354C 277.5,354.5 278.5,355 279.5,355.5C 280.329,358.802 280.996,362.135 281.5,365.5C 281.392,366.442 281.059,367.275 280.5,368C 282.404,370.877 283.404,374.044 283.5,377.5C 283.631,378.376 283.298,379.043 282.5,379.5C 279.888,379.015 279.888,379.849 282.5,382C 282.167,382.333 281.833,382.667 281.5,383C 282.5,383.833 283.5,384.667 284.5,385.5C 283.223,386.922 283.557,387.922 285.5,388.5C 279.426,390.42 273.093,391.92 266.5,393C 261.154,393.432 255.82,393.266 250.5,392.5C 250.423,391.25 249.756,390.417 248.5,390C 248.833,385.667 249.167,381.333 249.5,377C 248,375.5 246.5,374 245,372.5C 244.722,373.416 244.222,374.082 243.5,374.5C 243.5,368.167 243.5,361.833 243.5,355.5C 246.279,356.617 246.612,357.783 244.5,359C 245.667,360.167 246.833,361.333 248,362.5C 248.167,362 248.333,361.5 248.5,361C 248.24,359.205 247.906,357.371 247.5,355.5C 246.272,353.824 244.939,353.491 243.5,354.5C 243.5,352.833 243.5,351.167 243.5,349.5C 244.404,350.209 244.737,351.209 244.5,352.5C 245.873,352.657 247.207,352.49 248.5,352C 245.833,351.333 245.833,350.667 248.5,350C 248.5,348.667 248.5,347.333 248.5,346C 245.675,344.526 245.342,343.026 247.5,341.5C 245.853,339.066 244.52,339.066 243.5,341.5C 243.5,339.5 243.5,337.5 243.5,335.5C 245.411,335.574 246.578,336.574 247,338.5C 247.273,336.899 247.773,335.399 248.5,334C 248.421,331.228 248.087,328.562 247.5,326C 248.167,325.333 248.833,324.667 249.5,324C 248.185,322.605 248.519,321.605 250.5,321C 250.167,320.667 249.833,320.333 249.5,320C 250.448,319.517 251.448,319.351 252.5,319.5C 252.826,317.339 253.826,315.506 255.5,314C 254.696,312.229 253.529,310.729 252,309.5C 251.383,310.449 251.549,311.282 252.5,312C 249.642,314.949 248.309,314.449 248.5,310.5C 249.043,310.44 249.376,310.107 249.5,309.5C 248.833,307.833 248.167,306.167 247.5,304.5C 247.846,303.304 248.346,303.304 249,304.5C 249.483,305.448 249.649,306.448 249.5,307.5C 250.5,307.5 251.5,307.5 252.5,307.5 Z"/></g>
<g><path style="opacity:1" fill="#8f8f8f" d="M 291.5,311.5 C 289.183,315.146 286.516,318.48 283.5,321.5C 282.167,322.167 280.833,322.833 279.5,323.5C 279.423,322.25 278.756,321.417 277.5,321C 280.833,320.333 282.833,318.333 283.5,315C 279.968,314.708 279.635,313.542 282.5,311.5C 282.75,312.922 283.583,313.922 285,314.5C 286.728,312.806 286.228,311.639 283.5,311C 284.931,310.535 286.097,309.701 287,308.5C 288.4,309.748 289.9,310.748 291.5,311.5 Z"/></g>
<g><path style="opacity:1" fill="#c7c6c6" d="M 278.5,325.5 C 278.879,327.492 279.212,329.826 279.5,332.5C 279.351,334.32 278.684,335.82 277.5,337C 278.428,337.388 279.095,338.055 279.5,339C 279.167,341.668 279.167,344.501 279.5,347.5C 278.417,347.461 277.417,347.127 276.5,346.5C 275.483,344.163 273.816,342.496 271.5,341.5C 272.989,341.467 274.322,340.967 275.5,340C 272.425,335.891 269.091,331.891 265.5,328C 267.728,327.18 269.728,327.513 271.5,329C 270.5,329.333 269.5,329.667 268.5,330C 270.333,331.167 271.833,332.667 273,334.5C 273.414,334.043 273.914,333.709 274.5,333.5C 277.922,336.29 278.589,336.123 276.5,333C 277.973,332.29 278.64,331.124 278.5,329.5C 277.448,329.649 276.448,329.483 275.5,329C 276.814,328.015 277.814,326.848 278.5,325.5 Z"/></g>
<g><path style="opacity:0.204" fill="#6d6d6d" d="M 283.5,321.5 C 281.089,328.254 280.089,335.254 280.5,342.5C 281.07,354.255 282.404,365.922 284.5,377.5C 284.167,377.5 283.833,377.5 283.5,377.5C 283.404,374.044 282.404,370.877 280.5,368C 281.059,367.275 281.392,366.442 281.5,365.5C 280.996,362.135 280.329,358.802 279.5,355.5C 278.5,355 277.5,354.5 276.5,354C 277.833,353.333 277.833,352.667 276.5,352C 277.449,351.383 278.282,351.549 279,352.5C 279.494,350.866 279.66,349.199 279.5,347.5C 279.167,344.501 279.167,341.668 279.5,339C 279.095,338.055 278.428,337.388 277.5,337C 278.684,335.82 279.351,334.32 279.5,332.5C 279.212,329.826 278.879,327.492 278.5,325.5C 280.698,325.591 281.031,324.925 279.5,323.5C 280.833,322.833 282.167,322.167 283.5,321.5 Z"/></g>
<g><path style="opacity:1" fill="#c3c3c3" d="M 207.5,337.5 C 211.445,338.425 211.445,339.591 207.5,341C 209.856,341.155 212.189,341.155 214.5,341C 211.779,342.258 209.112,343.592 206.5,345C 207.167,345.333 207.833,345.667 208.5,346C 207.359,346.741 207.359,347.575 208.5,348.5C 207.675,349.386 206.675,349.719 205.5,349.5C 205.712,345.985 205.712,342.652 205.5,339.5C 205.855,338.478 206.522,337.811 207.5,337.5 Z"/></g>
<g><path style="opacity:1" fill="#afafaf" d="M 242.5,354.5 C 240.947,356.385 238.947,357.385 236.5,357.5C 235.395,355.7 236.061,354.533 238.5,354C 235.557,352.541 235.224,350.874 237.5,349C 235.219,347.149 235.219,345.482 237.5,344C 236.221,339.774 236.221,335.608 237.5,331.5C 238.583,331.461 239.583,331.127 240.5,330.5C 241.325,326.878 241.825,323.211 242,319.5C 242.5,331.162 242.667,342.829 242.5,354.5 Z"/></g>
<g><path style="opacity:1" fill="#afafaf" d="M 243.5,349.5 C 243.5,346.833 243.5,344.167 243.5,341.5C 244.52,339.066 245.853,339.066 247.5,341.5C 245.342,343.026 245.675,344.526 248.5,346C 248.5,347.333 248.5,348.667 248.5,350C 245.833,350.667 245.833,351.333 248.5,352C 247.207,352.49 245.873,352.657 244.5,352.5C 244.737,351.209 244.404,350.209 243.5,349.5 Z"/></g>
<g><path style="opacity:1" fill="#747474" d="M 238.5,299.5 C 240.011,301.476 240.844,303.809 241,306.5C 241.333,310.167 241.667,313.833 242,317.5C 242.874,313.035 243.707,308.702 244.5,304.5C 244.727,308.257 245.06,311.757 245.5,315C 244.379,317.665 243.712,320.165 243.5,322.5C 244.167,323.167 244.833,323.833 245.5,324.5C 245.154,325.696 244.654,325.696 244,324.5C 243.501,328.152 243.335,331.818 243.5,335.5C 243.5,337.5 243.5,339.5 243.5,341.5C 243.5,344.167 243.5,346.833 243.5,349.5C 243.5,351.167 243.5,352.833 243.5,354.5C 243.5,354.833 243.5,355.167 243.5,355.5C 243.5,361.833 243.5,368.167 243.5,374.5C 244.583,376.71 244.583,378.877 243.5,381C 243.785,382.89 244.785,384.223 246.5,385C 245.065,384.689 243.732,384.855 242.5,385.5C 241.786,382.973 241.12,380.473 240.5,378C 242.447,370.442 243.114,362.609 242.5,354.5C 242.667,342.829 242.5,331.162 242,319.5C 241.825,323.211 241.325,326.878 240.5,330.5C 239.583,331.127 238.583,331.461 237.5,331.5C 236.375,330.652 236.375,329.652 237.5,328.5C 239.252,328.582 240.252,327.749 240.5,326C 239.616,324.902 238.616,324.402 237.5,324.5C 238.325,323.614 239.325,323.281 240.5,323.5C 240.662,321.473 240.495,319.473 240,317.5C 239.333,318.167 238.667,318.833 238,319.5C 236.392,317.233 237.225,316.233 240.5,316.5C 240.348,313.513 240.015,310.846 239.5,308.5C 237.368,310.117 235.035,310.617 232.5,310C 234.757,308.55 237.09,307.383 239.5,306.5C 239.007,304.194 238.674,301.861 238.5,299.5 Z"/></g>
<g><path style="opacity:1" fill="#b0b0b0" d="M 243.5,355.5 C 243.5,355.167 243.5,354.833 243.5,354.5C 244.939,353.491 246.272,353.824 247.5,355.5C 247.906,357.371 248.24,359.205 248.5,361C 248.333,361.5 248.167,362 248,362.5C 246.833,361.333 245.667,360.167 244.5,359C 246.612,357.783 246.279,356.617 243.5,355.5 Z"/></g>
<g><path style="opacity:0.796" fill="#3b3b3b" d="M 203.5,358.5 C 203.5,358.833 203.5,359.167 203.5,359.5C 203.167,363.5 202.833,367.5 202.5,371.5C 201.669,375.987 200.336,380.32 198.5,384.5C 199.968,375.671 201.635,367.004 203.5,358.5 Z"/></g>
<g><path style="opacity:1" fill="#c9c9c9" d="M 242.5,354.5 C 243.114,362.609 242.447,370.442 240.5,378C 241.12,380.473 241.786,382.973 242.5,385.5C 243.732,384.855 245.065,384.689 246.5,385C 244.785,384.223 243.785,382.89 243.5,381C 244.583,378.877 244.583,376.71 243.5,374.5C 244.222,374.082 244.722,373.416 245,372.5C 246.5,374 248,375.5 249.5,377C 249.167,381.333 248.833,385.667 248.5,390C 249.756,390.417 250.423,391.25 250.5,392.5C 248.801,392.66 247.134,392.494 245.5,392C 244.123,389.699 242.456,389.199 240.5,390.5C 238.027,390.053 237.86,389.053 240,387.5C 240.667,385.5 240.667,383.5 240,381.5C 238.421,382.8 237.255,382.466 236.5,380.5C 237.064,372.551 237.064,364.885 236.5,357.5C 238.947,357.385 240.947,356.385 242.5,354.5 Z"/></g>
<g><path style="opacity:1" fill="#b3b3b3" d="M 236.5,380.5 C 237.255,382.466 238.421,382.8 240,381.5C 240.667,383.5 240.667,385.5 240,387.5C 237.86,389.053 238.027,390.053 240.5,390.5C 240.389,391.117 240.056,391.617 239.5,392C 237.527,392.495 235.527,392.662 233.5,392.5C 233.953,391.542 234.619,390.708 235.5,390C 235.707,387.368 235.374,385.035 234.5,383C 235.066,382.005 235.733,381.172 236.5,380.5 Z"/></g>
<g><path style="opacity:1" fill="#bababa" d="M 202.5,371.5 C 205.055,371.635 205.055,372.801 202.5,375C 203.833,375 205.167,375 206.5,375C 204.982,378.392 203.316,381.725 201.5,385C 202.167,385.333 202.833,385.667 203.5,386C 202.016,386.662 200.683,387.496 199.5,388.5C 198.566,387.432 198.232,386.099 198.5,384.5C 200.336,380.32 201.669,375.987 202.5,371.5 Z"/></g>
<g><path style="opacity:0.965" fill="#9a9a9a" d="M 283.5,377.5 C 283.833,377.5 284.167,377.5 284.5,377.5C 285.165,380.803 285.832,384.137 286.5,387.5C 286.376,388.107 286.043,388.44 285.5,388.5C 283.557,387.922 283.223,386.922 284.5,385.5C 283.5,384.667 282.5,383.833 281.5,383C 281.833,382.667 282.167,382.333 282.5,382C 279.888,379.849 279.888,379.015 282.5,379.5C 283.298,379.043 283.631,378.376 283.5,377.5 Z"/></g>
</svg>
